<svg width="56" height="56" aria-hidden="true" aria-label="" data-bbox="38.8 31.8 122.7 136.3" data-type="color" preserveAspectRatio="xMidYMid meet" role="presentation" viewBox="38.8 31.8 122.7 136.3" xmlns="http://www.w3.org/2000/svg" xmlns:xlink="http://www.w3.org/1999/xlink"><g class="_svgImageSource_1tvc6_7" data-type="color"><g>
<path d="M141.9 147H131c-4.5 0-8.2-3.7-8.2-8.2v-6.5c6.3-5 10.9-11.9 12.8-19.9h3.2c4.6 0 8.3-3.7 8.3-8.3V85.5c0-2.6-2.1-4.8-4.8-4.8h-2.2V65.1c0-4.6-3.5-8.3-8-8.8-5.1-8.1-13.8-13.3-23.4-13.9v-1.8c0-4.9-4-8.8-8.8-8.8-4.9 0-8.8 4-8.8 8.8v1.8c-9.5.6-18.3 5.8-23.4 13.9-4.5.4-8 4.2-8 8.8v15.6h-2.2c-2.6 0-4.8 2.2-4.8 4.8V104c0 4.6 3.7 8.3 8.3 8.3h3.2c2 8 6.6 15 12.8 19.9v6.5c0 4.5-3.7 8.2-8.2 8.2H58.1c-1 0-3.575.177-4.5.3-9.7 1.5-14.8 7.9-14.8 19 0 1 .8 1.9 1.9 1.9 1 0 1.9-.8 1.9-1.9 0-8.5 3.4-13.4 10.2-15v15c0 1 .8 1.9 1.9 1.9 1 0 1.9-.8 1.9-1.9v-15.5c.6 0 1.1-.1 1.6-.1h8.6v15.6c0 1 .8 1.9 1.9 1.9 1 0 1.9-.8 1.9-1.9v-15.7c1.8-.2 3.5-.8 5-1.8 6.7 5.7 15.1 8.9 24 8.9 8.8 0 17.4-3.3 24.2-9.2.1-.1.1-.2.2-.3.7.5 1.4 1 2.2 1.4v16.7c0 1 .8 1.9 1.9 1.9 1 0 1.9-.8 1.9-1.9v-15.7c.4 0 .8.1 1.2.1h9v15.6c0 1 .8 1.9 1.9 1.9 1 0 1.9-.8 1.9-1.9v-15.5c9.2.6 13.7 5.6 13.7 15.5 0 1 .8 1.9 1.9 1.9s1.9-.8 1.9-1.9c-.3-12.5-7-19.2-19.6-19.2zm-5.4-81.9v15.6h-10.2V65.1c0-2.7 2.1-4.9 4.7-5.1.1 0 .2.1.2.1.1 0 .2-.1.3-.1 2.8.1 5 2.3 5 5.1zm-8.4-8.2c-3.2 1.3-5.6 4.5-5.6 8.2v15.6h-13.7V46.2c7.7.5 14.8 4.5 19.3 10.7zM94.9 40.7c0-2.8 2.3-5.1 5.1-5.1s5.1 2.3 5.1 5.1v40H94.9v-40zm-3.7 5.5v34.6H77.4V65.1c0-3.7-2.3-6.9-5.5-8.2 4.5-6.2 11.6-10.2 19.3-10.7zM63.5 65.1c0-2.8 2.3-5.1 5.1-5.1s5.1 2.3 5.1 5.1v15.6H63.5V65.1zm3.5 38.4c0-1-.8-1.9-1.9-1.9s-1.9.8-1.9 1.9c0 1.7.2 3.4.4 5.1h-2.5c-2.6 0-4.6-2.1-4.6-4.6V85.5c0-.6.5-1.1 1.1-1.1h5.6v5.1c0 1 .8 1.9 1.9 1.9 1.1 0 1.9-.8 1.9-1.9v-5.1h66v5.1c0 1 .8 1.9 1.9 1.9s1.9-.8 1.9-1.9v-5.1h5.6c.6 0 1.1.5 1.1 1.1V104c0 2.6-2.1 4.6-4.6 4.6h-2.5c.2-1.7.4-3.4.4-5.1 0-1-.8-1.9-1.9-1.9s-1.9.8-1.9 1.9c0 18.2-14.8 33-33 33s-33-14.8-33-33zM99.4 154c-7.8 0-15.3-2.8-21.2-7.7 1.7-2 2.7-4.6 2.7-7.5v-4c5.6 3.4 12.1 5.4 19.1 5.4s13.5-2 19.1-5.4v4c0 2.6.8 4.9 2.2 6.9 0 0-.1 0-.1.1-6.1 5.2-13.8 8.2-21.8 8.2z" data-color="1" fill="#BD4F00"></path>
</g></g></svg>